<svg width="170" height="154" viewBox="0 0 170 154" fill="none" xmlns="http://www.w3.org/2000/svg">
<g id="Group">
<path id="Vector" d="M140.778 146.454C145.304 148.241 150.013 149.603 154.86 150.53C157.283 150.984 159.739 151.329 162.217 151.637L165.953 151.964C167.204 152.007 168.462 152.113 169.723 152.187C169.854 152.194 169.971 152.289 169.995 152.423C170.024 152.58 169.918 152.729 169.761 152.757C164.765 153.641 159.625 154.015 154.476 153.734C149.329 153.462 144.172 152.561 139.187 151.046C134.195 149.554 129.392 147.432 124.849 144.907C120.297 142.383 116.06 139.357 112.095 136.061L112.044 136.018C111.627 135.672 111.302 135.204 111.13 134.646C110.663 133.124 111.517 131.511 113.039 131.044C117.407 129.703 121.74 128.209 125.967 126.411C130.189 124.603 133.7 122.897 137.731 120.635C141.649 111.553 144.816 102.956 146.267 93.2965L146.278 93.2266C146.341 92.8149 146.558 92.4239 146.915 92.15C147.65 91.5871 148.7 91.7269 149.263 92.4597C161.599 108.557 168.845 128.349 169.807 148.333C169.812 148.485 169.699 148.619 169.546 148.632C169.389 148.647 169.249 148.53 169.234 148.373C168.278 138.473 165.743 128.78 161.883 119.698C158.008 110.618 155.273 105.25 149.065 97.6599C147.91 107.888 145.209 113.676 141.567 123.077C141.407 123.491 141.116 123.857 140.71 124.106L140.631 124.155C136.579 126.651 132.406 128.987 128.094 131.073C123.789 133.169 124.25 133.307 119.675 134.803L127.769 139.905C131.913 142.457 136.258 144.652 140.778 146.454Z" fill="url(#paint0_linear_961_626)"/>
<path id="Vector_2" d="M124.609 112.913L124.588 112.892C115.102 103.253 104.881 94.2524 93.4762 87.237L89.1733 84.6662C87.7415 83.803 86.2153 83.1494 84.74 82.3788C81.8085 80.7675 78.6804 79.7135 75.6223 78.4385C75.2521 78.3157 74.8781 78.2043 74.506 78.0853L73.8354 77.8945C74.3813 81.9084 74.5589 85.9809 74.2396 90.0515C73.6975 97.0876 71.6141 104.143 67.6738 110.176C67.1676 110.916 66.7653 111.738 66.1684 112.412L64.4211 114.473C63.3048 115.867 61.9844 117.184 60.4979 118.313C57.5512 120.58 53.9264 122.167 50.1335 122.531C46.3519 122.879 42.5042 122.25 39.091 120.752C35.6683 119.273 32.5403 117.159 29.9657 114.488C27.3968 111.825 25.2076 108.725 23.8551 105.187C22.4913 101.681 21.8208 97.7601 22.4214 93.8916C22.9673 90.0345 24.6522 86.3266 27.1135 83.3988C27.7519 82.7055 28.3507 81.9122 29.0345 81.3096L31.0745 79.4699C31.7772 78.8824 32.3929 78.1892 33.1712 77.6943L35.4473 76.1322C41.5805 72.0427 48.9208 69.8327 56.2157 69.4984C60.3864 69.2887 64.5212 69.64 68.5767 70.3616L68.5729 70.3465L68.9073 70.4182C69.2548 70.4825 69.6043 70.541 69.9518 70.609C69.8876 70.3351 69.8328 70.0594 69.7648 69.7874C68.1366 63.2121 65.426 56.9221 62.1507 50.972C55.6585 38.9416 45.8306 29.0721 35.504 20.0942C30.2793 15.6571 24.8071 11.4732 18.9043 7.96365C13.0374 4.42952 6.73601 1.46582 0.000193826 3.43114e-05C6.76812 1.30905 13.1715 4.13862 19.1461 7.55186C25.1585 10.9424 30.7572 15.0206 36.116 19.3613C41.4389 23.7586 46.5918 28.3449 51.3141 33.4241C52.5229 34.667 53.7111 35.9288 54.7764 37.3002C55.8644 38.6488 57.0072 39.9578 58.0518 41.3443L61.0551 45.6C62.0846 47.0016 62.8817 48.5542 63.8072 50.0257C67.296 56.0305 70.2295 62.4188 72.0712 69.1791C72.2506 69.844 72.415 70.5165 72.5774 71.187C72.7814 71.2361 72.9816 71.2928 73.1856 71.3419L73.469 71.4024L73.4709 71.4137C74.8611 71.765 76.24 72.1428 77.6038 72.564C80.932 73.8447 84.3641 74.9403 87.5205 76.5704C89.1128 77.3543 90.7732 78.0324 92.3089 78.907L96.9291 81.5231C109.16 88.6726 119.96 97.7771 129.987 107.499C130.004 107.516 130.034 107.545 130.049 107.562C131.526 109.063 131.507 111.479 130.006 112.956C128.502 114.435 126.086 114.415 124.609 112.913ZM71.1513 77.1276L70.3542 76.901C65.7717 75.7487 61.1042 75.0895 56.4556 75.2161C50.0258 75.3672 43.6942 77.1238 38.2863 80.5428L36.2727 81.8499C35.5795 82.256 35.0336 82.868 34.4046 83.3648L32.5705 84.9344C31.9472 85.452 31.507 86.0508 30.9593 86.6005C28.9362 88.8955 27.6291 91.6703 27.1323 94.6113C25.166 106.615 37.3267 119.639 49.7803 118.734C52.8573 118.508 55.8096 117.306 58.3483 115.455C59.6233 114.535 60.785 113.438 61.8447 112.169L63.4805 110.334C64.0452 109.736 64.4155 108.991 64.8971 108.327C68.6164 102.911 70.7244 96.4284 71.3912 89.7946C71.82 85.5993 71.701 81.3455 71.1513 77.1276Z" fill="url(#paint1_linear_961_626)"/>
</g>
<defs>
<linearGradient id="paint0_linear_961_626" x1="171.909" y1="155.71" x2="105.835" y2="98.3224" gradientUnits="userSpaceOnUse">
<stop stop-color="white"/>
<stop offset="1" stop-color="white" stop-opacity="0"/>
</linearGradient>
<linearGradient id="paint1_linear_961_626" x1="135.387" y1="126.351" x2="3.48877" y2="-2.44831" gradientUnits="userSpaceOnUse">
<stop stop-color="white"/>
<stop offset="1" stop-color="white" stop-opacity="0"/>
</linearGradient>
</defs>
</svg>
