<svg width="430" height="377" viewBox="0 0 430 377" fill="none" xmlns="http://www.w3.org/2000/svg">
<path d="M-122.013 324.22C-141.432 349.705 -41.1433 207.887 18.883 173.059C78.9093 138.231 168.433 215.212 260.63 187.551C366.404 155.816 427.652 108.185 500.432 1.06274" stroke="white" stroke-opacity="0.22" stroke-width="1.5" stroke-linecap="round"/>
<path d="M-110.668 380.663C-130.086 406.147 -29.7976 264.329 30.2287 229.501C90.255 194.673 179.778 271.654 271.975 243.993C377.75 212.258 438.998 164.627 511.778 57.5049" stroke="white" stroke-opacity="0.22" stroke-width="1.5" stroke-linecap="round"/>
<path d="M-115.981 354.231C-135.399 379.716 -35.1106 237.898 24.9157 203.07C84.942 168.242 174.465 245.223 266.662 217.562C372.437 185.827 433.685 138.196 506.465 31.0738" stroke="white" stroke-opacity="0.22" stroke-width="1.5" stroke-linecap="round"/>
<path d="M-104.635 410.674C-124.053 436.158 -23.7652 294.341 36.2611 259.512C96.2874 224.684 185.811 301.665 278.008 274.004C383.783 242.269 445.03 194.638 517.81 87.516" stroke="white" stroke-opacity="0.22" stroke-width="1.5" stroke-linecap="round"/>
<path d="M-119.143 338.499C-138.561 363.983 -38.2732 222.166 21.7531 187.337C81.7794 152.509 171.303 229.49 263.5 201.829C369.275 170.094 430.522 122.463 503.302 15.3411" stroke="white" stroke-opacity="0.22" stroke-width="1.5" stroke-linecap="round"/>
<path d="M-107.798 394.941C-127.216 420.425 -26.9275 278.608 33.0988 243.779C93.1251 208.951 182.649 285.933 274.845 258.271C380.62 226.536 441.868 178.905 514.648 71.7832" stroke="white" stroke-opacity="0.22" stroke-width="1.5" stroke-linecap="round"/>
<path d="M-113.111 368.51C-132.529 393.994 -32.2407 252.177 27.7856 217.348C87.8118 182.52 177.335 259.501 269.532 231.84C375.307 200.105 436.555 152.474 509.335 45.352" stroke="white" stroke-opacity="0.22" stroke-width="1.5" stroke-linecap="round"/>
<path d="M-101.765 424.952C-121.183 450.436 -20.8948 308.619 39.1315 273.791C99.1578 238.962 188.681 315.944 280.878 288.282C386.653 256.547 447.901 208.917 520.681 101.794" stroke="white" stroke-opacity="0.22" stroke-width="1.5" stroke-linecap="round"/>
</svg>
