<svg width="98" height="98" viewBox="0 0 98 98" fill="none" xmlns="http://www.w3.org/2000/svg">
<g id="Group 4">
<circle id="Ellipse 5" cx="49" cy="49" r="49" fill="white" fill-opacity="0.52"/>
<g id="Group">
<path id="Vector" d="M25.9354 42.8529C31.0912 35.0455 39.5894 36.0054 43.7138 37.7672C44.2502 33.3145 47.668 25.4749 57.0073 24.9135C69.0197 24.1925 73.4166 37.1899 70.4618 48.2174C69.0198 53.5989 66.4807 63.0752 64.0165 68.9536C63.7409 69.6098 63.2523 70.1539 62.6294 70.4981C62.0065 70.8423 61.2857 70.9665 60.5836 70.8507C54.6777 69.9248 44.6954 67.5784 39.3899 66.1568C28.3624 63.202 19.3047 52.8955 25.9354 42.8529Z" fill="#F8312F"/>
<path id="Vector_2" d="M43.714 37.7673L46.4498 42.5057C46.0145 37.1952 47.7005 28.7956 56.33 24.9671C47.5025 25.8587 44.237 33.424 43.714 37.7673ZM34.7581 36.8003C31.6122 37.4006 28.3941 39.1281 25.9357 42.853C19.305 52.8956 28.3627 63.2021 39.3902 66.1569C44.6957 67.5785 54.678 69.9249 60.5838 70.8508C61.2861 70.9663 62.0067 70.8418 62.6295 70.4973C63.2522 70.1528 63.7406 69.6084 64.0159 68.9521C64.2374 68.4245 64.4587 67.8679 64.6811 67.2879C58.325 66.5185 49.0731 64.8668 43.9512 63.7991C32.2756 61.3614 23.0843 51.3723 30.7039 40.8541C31.822 39.2881 33.192 37.9183 34.7581 36.8003Z" fill="#F8312F"/>
<path id="Vector_3" d="M59.0026 45.9979C61.8124 45.9979 64.0902 42.158 64.0902 37.4211C64.0902 32.6843 61.8124 28.8443 59.0026 28.8443C56.1928 28.8443 53.915 32.6843 53.915 37.4211C53.915 42.158 56.1928 45.9979 59.0026 45.9979Z" fill="#F37366"/>
</g>
</g>
</svg>
