<svg width="1434" height="480" viewBox="0 0 1434 480" fill="none" xmlns="http://www.w3.org/2000/svg">
<path d="M-250.071 319.643C-299.466 358.758 -44.3551 141.084 108.339 87.6265C261.032 34.1688 488.761 152.327 723.289 109.87C992.357 61.1599 1148.16 -11.9479 1333.29 -176.369" stroke="white" stroke-opacity="0.22" stroke-linecap="round"/>
<path d="M-221.21 406.275C-270.606 445.391 -15.4943 227.717 137.199 174.259C289.893 120.801 517.621 238.96 752.15 196.502C1021.22 147.792 1177.02 74.6847 1362.16 -89.7363" stroke="white" stroke-opacity="0.22" stroke-linecap="round"/>
<path d="M-234.725 365.706C-284.121 404.822 -29.0094 187.148 123.684 133.69C276.378 80.2326 504.106 198.391 738.635 155.934C1007.7 107.224 1163.5 34.1159 1348.64 -130.305" stroke="white" stroke-opacity="0.22" stroke-linecap="round"/>
<path d="M-205.865 452.339C-255.26 491.455 -0.148588 273.781 152.545 220.323C305.239 166.865 532.967 285.023 767.496 242.566C1036.56 193.856 1192.36 120.749 1377.5 -43.6724" stroke="white" stroke-opacity="0.22" stroke-linecap="round"/>
<path d="M-242.77 341.558C-292.166 380.674 -37.0543 163 115.639 109.542C268.333 56.0845 496.061 174.243 730.59 131.785C999.658 83.0755 1155.46 9.96779 1340.6 -154.453" stroke="white" stroke-opacity="0.22" stroke-linecap="round"/>
<path d="M-213.909 428.191C-263.304 467.306 -8.19302 249.632 144.501 196.175C297.195 142.717 524.923 260.875 759.451 218.418C1028.52 169.708 1184.32 96.6004 1369.46 -67.8206" stroke="white" stroke-opacity="0.22" stroke-linecap="round"/>
<path d="M-227.425 387.622C-276.82 426.738 -21.7086 209.064 130.985 155.606C283.679 102.148 511.407 220.306 745.936 177.849C1015 129.139 1170.8 56.0315 1355.94 -108.389" stroke="white" stroke-opacity="0.22" stroke-linecap="round"/>
<path d="M-198.563 474.255C-247.959 513.37 7.15268 295.696 159.846 242.239C312.54 188.781 540.268 306.939 774.797 264.482C1043.87 215.772 1199.67 142.664 1384.8 -21.7568" stroke="white" stroke-opacity="0.22" stroke-linecap="round"/>
</svg>
