<svg width="1440" height="450" viewBox="0 0 1440 450" fill="none" xmlns="http://www.w3.org/2000/svg">
<path d="M-78.0711 497.643C-127.466 536.758 127.645 319.084 280.339 265.627C433.032 212.169 660.761 330.327 895.289 287.87C1164.36 239.16 1320.16 166.052 1505.29 1.63115" stroke="white" stroke-opacity="0.22" stroke-linecap="round"/>
<path d="M-49.2103 584.275C-98.6057 623.391 156.506 405.717 309.199 352.259C461.893 298.801 689.621 416.96 924.15 374.502C1193.22 325.792 1349.02 252.685 1534.16 88.2637" stroke="white" stroke-opacity="0.22" stroke-linecap="round"/>
<path d="M-62.7254 543.706C-112.121 582.822 142.991 365.148 295.684 311.69C448.378 258.233 676.106 376.391 910.635 333.934C1179.7 285.224 1335.5 212.116 1520.64 47.6949" stroke="white" stroke-opacity="0.22" stroke-linecap="round"/>
<path d="M-33.8646 630.339C-83.26 669.455 171.851 451.781 324.545 398.323C477.239 344.865 704.967 463.023 939.496 420.566C1208.56 371.856 1364.36 298.749 1549.5 134.328" stroke="white" stroke-opacity="0.22" stroke-linecap="round"/>
<path d="M-70.7703 519.558C-120.166 558.674 134.946 341 287.639 287.542C440.333 234.084 668.061 352.243 902.59 309.785C1171.66 261.076 1327.46 187.968 1512.6 23.5468" stroke="white" stroke-opacity="0.22" stroke-linecap="round"/>
<path d="M-41.909 606.191C-91.3044 645.306 163.807 427.632 316.501 374.175C469.195 320.717 696.923 438.875 931.451 396.418C1200.52 347.708 1356.32 274.6 1541.46 110.179" stroke="white" stroke-opacity="0.22" stroke-linecap="round"/>
<path d="M-55.4246 565.622C-104.82 604.738 150.291 387.064 302.985 333.606C455.679 280.148 683.407 398.306 917.936 355.849C1187 307.139 1342.8 234.032 1527.94 69.6105" stroke="white" stroke-opacity="0.22" stroke-linecap="round"/>
<path d="M-26.5633 652.255C-75.9587 691.37 179.153 473.696 331.846 420.239C484.54 366.781 712.268 484.939 946.797 442.482C1215.87 393.772 1371.67 320.664 1556.8 156.243" stroke="white" stroke-opacity="0.22" stroke-linecap="round"/>
</svg>
