<svg width="22" height="27" viewBox="0 0 22 27" fill="none" xmlns="http://www.w3.org/2000/svg">
<path id="Vector" d="M11 0.011336C9.53879 -0.0559928 8.07937 0.177156 6.71516 0.695858C5.35095 1.21456 4.11201 2.00739 3.07764 3.02359C2.04327 4.03978 1.23627 5.25697 0.708298 6.59722C0.180323 7.93747 -0.0569938 9.37126 0.0115386 10.8068C0.0115386 14.2074 2.75865 17.554 4.13221 18.9034C5.50577 20.2528 11 27 11 27C11 27 16.4942 20.2528 17.8678 18.9034C19.2413 17.554 21.9885 14.2074 21.9885 10.8068C22.057 9.37126 21.8197 7.93747 21.2917 6.59722C20.7637 5.25697 19.9567 4.03978 18.9224 3.02359C17.888 2.00739 16.6491 1.21456 15.2848 0.695858C13.9206 0.177156 12.4612 -0.0559928 11 0.011336ZM11 15.1925C10.1171 15.1925 9.25401 14.9352 8.5199 14.4533C7.78579 13.9714 7.21362 13.2865 6.87574 12.4851C6.53787 11.6837 6.44947 10.8019 6.62171 9.9512C6.79396 9.10047 7.21912 8.31902 7.84343 7.70567C8.46774 7.09233 9.26316 6.67463 10.1291 6.50541C10.995 6.33619 11.8926 6.42304 12.7083 6.75498C13.524 7.08692 14.2212 7.64904 14.7117 8.37026C15.2022 9.09148 15.4641 9.9394 15.4641 10.8068C15.4641 11.3827 15.3486 11.953 15.1243 12.4851C14.8999 13.0172 14.5711 13.5007 14.1566 13.9079C13.742 14.3152 13.2499 14.6382 12.7083 14.8586C12.1667 15.079 11.5862 15.1925 11 15.1925Z" fill="#F6172A"/>
</svg>
