<svg width="26" height="21" viewBox="0 0 26 21" fill="none" xmlns="http://www.w3.org/2000/svg">
<path id="Vector" d="M2.6 21C1.885 21 1.2727 20.7427 0.763102 20.2282C0.253502 19.7137 -0.000864459 19.096 2.20713e-06 18.375V2.625C2.20713e-06 1.90313 0.254802 1.28494 0.764402 0.770439C1.274 0.255939 1.88587 -0.000872771 2.6 2.22835e-06H23.4C24.115 2.22835e-06 24.7273 0.257252 25.2369 0.771752C25.7465 1.28625 26.0009 1.904 26 2.625V18.375C26 19.0969 25.7452 19.7151 25.2356 20.2296C24.726 20.7441 24.1141 21.0009 23.4 21H2.6ZM13 11.8125L23.4 5.25V2.625L13 9.1875L2.6 2.625V5.25L13 11.8125Z" fill="#F6172A"/>
</svg>
