<svg width="32" height="35" viewBox="0 0 32 35" fill="none" xmlns="http://www.w3.org/2000/svg">
<g id="Group 1">
<path id="Vector" d="M6.20206 0.534498C3.97065 -0.711251 1.32923 0.340678 0.372559 2.44868L15.0134 17.0904L22.4796 9.62415L6.20206 0.534498Z" fill="url(#paint0_linear_870_2177)"/>
<path id="Vector_2" d="M22.4796 24.5566L15.0134 17.0904L0.372559 31.732C1.33006 33.8409 3.97148 34.892 6.20206 33.6471L22.4796 24.5566Z" fill="url(#paint1_linear_870_2177)"/>
<path id="Vector_3" d="M29.3373 20.729C30.762 19.9339 31.4743 18.5125 31.4751 17.0904C31.4743 15.6682 30.762 14.246 29.3373 13.4517L22.4799 9.62416L15.0137 17.0904L22.4799 24.5566L29.3373 20.729Z" fill="url(#paint2_linear_870_2177)"/>
<path id="Vector_4" d="M0.37273 2.44868C0.139153 2.96637 0 3.54948 0 4.17567V30.0009C0 30.6313 0.135839 31.2127 0.37273 31.732L15.0119 17.0879L0.37273 2.44868Z" fill="url(#paint3_linear_870_2177)"/>
</g>
<defs>
<linearGradient id="paint0_linear_870_2177" x1="10.0238" y1="-0.101629" x2="15.9833" y2="25.9862" gradientUnits="userSpaceOnUse">
<stop stop-color="#35AB4A"/>
<stop offset="0.297" stop-color="#31A145"/>
<stop offset="0.798" stop-color="#288739"/>
<stop offset="1" stop-color="#237A33"/>
</linearGradient>
<linearGradient id="paint1_linear_870_2177" x1="10.8985" y1="16.9761" x2="12.5849" y2="52.6497" gradientUnits="userSpaceOnUse">
<stop stop-color="#F14E5D"/>
<stop offset="0.499" stop-color="#EA3D4F"/>
<stop offset="1" stop-color="#E12138"/>
</linearGradient>
<linearGradient id="paint2_linear_870_2177" x1="22.3167" y1="9.5521" x2="25.2969" y2="33.3348" gradientUnits="userSpaceOnUse">
<stop stop-color="#FFD844"/>
<stop offset="0.519" stop-color="#FFC63F"/>
<stop offset="1" stop-color="#FFB03A"/>
</linearGradient>
<linearGradient id="paint3_linear_870_2177" x1="6.50456" y1="2.09915" x2="7.92839" y2="32.6713" gradientUnits="userSpaceOnUse">
<stop offset="0.003" stop-color="#0090E6"/>
<stop offset="1" stop-color="#0065A0"/>
</linearGradient>
</defs>
</svg>
