<svg width="82" height="82" viewBox="0 0 82 82" fill="none" xmlns="http://www.w3.org/2000/svg">
<circle cx="41" cy="41" r="41" fill="white" fill-opacity="0.15"/>
<path d="M66 34.6239C65.9996 32.522 65.2845 30.478 63.9638 28.8041C62.6432 27.1301 60.7895 25.9183 58.6861 25.3537C56.5827 24.7892 54.3451 24.9028 52.315 25.6774C50.285 26.4519 48.5742 27.8448 47.4439 29.6432C46.3136 31.4416 45.8259 33.5467 46.0554 35.6369C46.2848 37.7272 47.2188 39.6877 48.7147 41.219C50.2105 42.7503 52.186 43.7682 54.3394 44.1173C56.4927 44.4663 58.7056 44.1273 60.64 43.152C59.9714 45.5392 59.0286 47.5385 57.9 49.1336C55.6429 52.3292 52.6857 53.8748 49.5714 53.8748C49.0031 53.8748 48.4581 54.0921 48.0562 54.4789C47.6543 54.8657 47.4286 55.3904 47.4286 55.9374C47.4286 56.4844 47.6543 57.0091 48.0562 57.3959C48.4581 57.7827 49.0031 58 49.5714 58C54.3457 58 58.5343 55.5716 61.4457 51.4547C64.3314 47.368 66 41.601 66 34.6239Z" fill="white"/>
<path d="M41 34.6239C40.9996 32.522 40.2845 30.478 38.9638 28.8041C37.6432 27.1301 35.7895 25.9183 33.6861 25.3537C31.5827 24.7892 29.3451 24.9028 27.315 25.6774C25.285 26.4519 23.5742 27.8448 22.4439 29.6432C21.3136 31.4416 20.8259 33.5467 21.0554 35.6369C21.2848 37.7272 22.2188 39.6877 23.7147 41.219C25.2105 42.7503 27.186 43.7682 29.3394 44.1173C31.4927 44.4663 33.7056 44.1273 35.64 43.152C34.9714 45.5392 34.0286 47.5385 32.9 49.1336C30.6429 52.3292 27.6857 53.8748 24.5714 53.8748C24.0031 53.8748 23.4581 54.0921 23.0562 54.4789C22.6543 54.8657 22.4286 55.3904 22.4286 55.9374C22.4286 56.4844 22.6543 57.0091 23.0562 57.3959C23.4581 57.7827 24.0031 58 24.5714 58C29.3457 58 33.5343 55.5716 36.4457 51.4547C39.3314 47.368 41 41.601 41 34.6239Z" fill="white"/>
</svg>
